<?xml version="1.0" encoding="UTF-8" standalone="no"?>
<!-- Created with Inkscape (http://www.inkscape.org/) -->

<svg
   xmlns:dc="http://purl.org/dc/elements/1.1/"
   xmlns:cc="http://creativecommons.org/ns#"
   xmlns:rdf="http://www.w3.org/1999/02/22-rdf-syntax-ns#"
   xmlns:svg="http://www.w3.org/2000/svg"
   xmlns="http://www.w3.org/2000/svg"
   xmlns:sodipodi="http://sodipodi.sourceforge.net/DTD/sodipodi-0.dtd"
   xmlns:inkscape="http://www.inkscape.org/namespaces/inkscape"
   width="197.83778mm"
   height="142.19969mm"
   viewBox="0 0 701.00002 503.85717"
   id="svg2"
   version="1.1"
   inkscape:version="0.91 r13725"
   sodipodi:docname="testmap.svg">
  <defs
     id="defs4" />
  <sodipodi:namedview
     id="base"
     pagecolor="#ffffff"
     bordercolor="#666666"
     borderopacity="1.0"
     inkscape:pageopacity="0.0"
     inkscape:pageshadow="2"
     inkscape:zoom="1.4"
     inkscape:cx="359.84499"
     inkscape:cy="289.21888"
     inkscape:document-units="px"
     inkscape:current-layer="layer1"
     showgrid="false"
     inkscape:window-width="1920"
     inkscape:window-height="1136"
     inkscape:window-x="0"
     inkscape:window-y="27"
     inkscape:window-maximized="1"
     fit-margin-top="0"
     fit-margin-left="0"
     fit-margin-right="0"
     fit-margin-bottom="0" />
  <metadata
     id="metadata7">
    <rdf:RDF>
      <cc:Work
         rdf:about="">
        <dc:format>image/svg+xml</dc:format>
        <dc:type
           rdf:resource="http://purl.org/dc/dcmitype/StillImage" />
        <dc:title></dc:title>
      </cc:Work>
    </rdf:RDF>
  </metadata>
  <g
     inkscape:label="Layer 1"
     inkscape:groupmode="layer"
     id="layer1"
     transform="translate(-16.64285,-202.5765)">
    <rect
       style="fill:#000000;fill-rule:evenodd;stroke:#000000;stroke-width:1.0866878px;stroke-linecap:butt;stroke-linejoin:miter;stroke-opacity:1"
       id="rect3336"
       width="699.91333"
       height="502.77048"
       x="17.186193"
       y="203.11984" />
    <path
       style="color:#000000;font-style:normal;font-variant:normal;font-weight:normal;font-stretch:normal;font-size:medium;line-height:normal;font-family:sans-serif;text-indent:0;text-align:start;text-decoration:none;text-decoration-line:none;text-decoration-style:solid;text-decoration-color:#000000;letter-spacing:normal;word-spacing:normal;text-transform:none;direction:ltr;block-progression:tb;writing-mode:lr-tb;baseline-shift:baseline;text-anchor:start;white-space:normal;clip-rule:nonzero;display:inline;overflow:visible;visibility:visible;opacity:1;isolation:auto;mix-blend-mode:normal;color-interpolation:sRGB;color-interpolation-filters:linearRGB;solid-color:#000000;solid-opacity:1;fill:#ffffff;fill-opacity:1;fill-rule:evenodd;stroke:#ffffff;stroke-width:50;stroke-linecap:butt;stroke-linejoin:miter;stroke-miterlimit:4;stroke-dasharray:none;stroke-dashoffset:0;stroke-opacity:1;color-rendering:auto;image-rendering:auto;shape-rendering:auto;text-rendering:auto;enable-background:accumulate"
       d="m 364.7207,241.0625 c -40.20896,0.0969 -86.44826,4.46799 -128.18554,13.46484 -27.82486,5.99791 -53.63335,14.04141 -74.38672,24.42383 -20.75337,10.38242 -36.69228,23.10792 -43.86133,39.23828 -6.81471,15.33309 -8.26601,30.63907 -3.97852,44.85743 4.2875,14.21835 14.16103,27.12733 29.02539,38.31054 29.72872,22.36643 79.55106,38.42194 149.70118,45.97656 35.24991,3.79615 60.37291,1.91767 79.11132,-3.78125 18.73842,-5.69891 30.98197,-15.3857 39.77735,-26.26171 8.79538,-10.87601 14.29841,-22.77914 20.375,-33.29883 6.07659,-10.51969 12.56001,-19.57156 23.13086,-25.91407 20.63081,-12.37849 53.80734,-5.4966 81.92773,5.62891 26.4905,10.48067 46.51846,23.16595 48.92383,24.70117 0.66948,2.75383 5.55032,23.12033 7.93555,49.9336 2.55106,28.67753 1.42653,62.64643 -10.65235,82.88672 -12.25844,20.54117 -37.72488,36.6082 -74.43359,49.63671 -36.70872,13.02852 -84.35505,23.01295 -139.95313,32.2793 -54.83076,9.13846 -77.38016,-1.50446 -97.63867,-15.76367 -20.25851,-14.25921 -38.58904,-33.41704 -79.57226,-37.84766 -41.85699,-4.52508 -73.33775,20.42896 -93.802738,45.75782 -20.464982,25.32885 -30.68164,51.6875 -30.68164,51.6875 l 9.320312,3.625 c 0,0 9.784179,-25.07049 29.140626,-49.02735 19.35645,-23.95686 47.51854,-46.14596 84.94726,-42.09961 38.3025,4.14081 53.54395,21.05553 74.89258,36.08203 21.34864,15.02651 48.44126,26.88219 105.03907,17.44922 55.83049,-9.30508 103.89872,-19.31869 141.65429,-32.71875 37.75557,-13.40006 65.50371,-30.19101 79.67383,-53.93554 14.34969,-24.04544 14.65484,-59.36169 12.02734,-88.89844 -2.6275,-29.53675 -8.61328,-53.44922 -8.61328,-53.44922 l -0.47656,-1.91016 -1.65234,-1.07226 c 0,0 -23.19935,-15.06022 -52.40039,-26.61328 -29.20104,-11.55306 -64.95225,-20.38491 -90.75,-4.90625 -12.64345,7.58606 -20.26772,18.44352 -26.64649,29.48632 -6.37876,11.04281 -11.67847,22.35397 -19.49023,32.01368 -7.81176,9.6597 -17.98089,17.83117 -34.91211,22.98047 -16.93123,5.14929 -40.73597,7.1101 -75.12891,3.40624 -69.1356,-7.44537 -117.52615,-23.53273 -144.76172,-44.02343 -13.61778,-10.24536 -21.91556,-21.44324 -25.46289,-33.20703 -3.54733,-11.76379 -2.49947,-24.31468 3.54297,-37.91016 5.6881,-12.79821 19.57117,-24.537 39.19727,-34.35547 19.62609,-9.81847 44.75509,-17.7147 72.01953,-23.5918 54.52887,-11.75419 117.66311,-15.47834 163.11328,-11.95507 90.98034,7.05274 262.66992,52.70312 262.66992,52.70312 l 2.57617,-9.66211 c 0,0 -171.16729,-45.77874 -264.47265,-53.01172 -11.67317,-0.90489 -24.40561,-1.34676 -37.8086,-1.31445 z"
       id="path3340"
       inkscape:connector-curvature="0" />
    <ellipse
       style="fill:#00ff00;fill-opacity:1;stroke:#00ff00;stroke-width:1;stroke-miterlimit:4;stroke-dasharray:none;stroke-opacity:1"
       id="path4148"
       cx="71.785706"
       cy="651.64795"
       rx="11.785714"
       ry="12.142858" />
    <circle
       style="fill:#ff0000;fill-opacity:1;stroke:#ff0000;stroke-width:1;stroke-miterlimit:4;stroke-dasharray:none;stroke-opacity:1"
       id="path4150"
       cx="657.14282"
       cy="297.36221"
       r="12.857142" />
  </g>
</svg>
