<?xml version="1.0" encoding="UTF-8" standalone="no"?>
<!-- Created with Inkscape (http://www.inkscape.org/) -->

<svg
   xmlns:dc="http://purl.org/dc/elements/1.1/"
   xmlns:cc="http://creativecommons.org/ns#"
   xmlns:rdf="http://www.w3.org/1999/02/22-rdf-syntax-ns#"
   xmlns:svg="http://www.w3.org/2000/svg"
   xmlns="http://www.w3.org/2000/svg"
   xmlns:sodipodi="http://sodipodi.sourceforge.net/DTD/sodipodi-0.dtd"
   xmlns:inkscape="http://www.inkscape.org/namespaces/inkscape"
   width="157.27841mm"
   height="148.40857mm"
   viewBox="0 0 557.28571 525.85713"
   id="svg2"
   version="1.1"
   inkscape:version="0.91 r13725"
   sodipodi:docname="drawing.svg">
  <defs
     id="defs4" />
  <sodipodi:namedview
     id="base"
     pagecolor="#ffffff"
     bordercolor="#666666"
     borderopacity="1.0"
     inkscape:pageopacity="0.0"
     inkscape:pageshadow="2"
     inkscape:zoom="0.98994949"
     inkscape:cx="540.35587"
     inkscape:cy="323.47164"
     inkscape:document-units="px"
     inkscape:current-layer="layer1"
     showgrid="false"
     inkscape:window-width="1920"
     inkscape:window-height="1016"
     inkscape:window-x="0"
     inkscape:window-y="27"
     inkscape:window-maximized="1"
     fit-margin-top="0"
     fit-margin-left="0"
     fit-margin-right="0"
     fit-margin-bottom="0" />
  <metadata
     id="metadata7">
    <rdf:RDF>
      <cc:Work
         rdf:about="">
        <dc:format>image/svg+xml</dc:format>
        <dc:type
           rdf:resource="http://purl.org/dc/dcmitype/StillImage" />
        <dc:title></dc:title>
      </cc:Work>
    </rdf:RDF>
  </metadata>
  <g
     inkscape:label="Layer 1"
     inkscape:groupmode="layer"
     id="layer1"
     transform="translate(-122.78571,-320.86221)">
    <rect
       style="fill:#000000;fill-opacity:1;stroke:#000000;stroke-width:3;stroke-miterlimit:4;stroke-dasharray:none;stroke-dashoffset:0;stroke-opacity:1"
       id="rect4136"
       width="554.28571"
       height="522.85712"
       x="124.28571"
       y="322.36221" />
    <path
       sodipodi:type="star"
       style="fill:#ffffff;fill-opacity:1;stroke:#ffffff;stroke-width:30.10000038;stroke-miterlimit:4;stroke-dasharray:none;stroke-dashoffset:0;stroke-opacity:1"
       id="path4138"
       sodipodi:sides="5"
       sodipodi:cx="407.32455"
       sodipodi:cy="598.78351"
       sodipodi:r1="261.87262"
       sodipodi:r2="36.124584"
       sodipodi:arg1="0.83567024"
       sodipodi:arg2="2.3406538"
       inkscape:flatsided="false"
       inkscape:rounded="0"
       inkscape:randomized="0"
       d="M 582.95746,793.02653 382.18065,624.72132 276.86202,825.84472 374.88634,582.88546 151.06137,544.87204 412.42054,563.02017 379.40773,338.40317 442.91226,592.57859 646.3342,491.77108 424.22298,630.712 Z"
       inkscape:transform-center-x="8.6267718"
       inkscape:transform-center-y="-16.659541" />
    <path
       style="fill:#00ff00;fill-opacity:1;stroke:#00ff00;stroke-width:0.12693283;stroke-miterlimit:4;stroke-dasharray:none;stroke-dashoffset:0;stroke-opacity:1"
       id="path4144"
       sodipodi:type="arc"
       sodipodi:cx="382.68475"
       sodipodi:cy="354.5256"
       sodipodi:rx="12.433447"
       sodipodi:ry="12.433269"
       sodipodi:start="5.0908636"
       sodipodi:end="5.0889612"
       sodipodi:open="true"
       d="m 387.27896,342.97225 a 12.433447,12.433269 0 0 1 6.9615,16.14199 12.433447,12.433269 0 0 1 -16.13892,6.96909 12.433447,12.433269 0 0 1 -6.97685,-16.13537 12.433447,12.433269 0 0 1 16.13228,-6.98443" />
    <path
       style="fill:#00ff00;fill-opacity:1;stroke:#00ff00;stroke-width:0.12693283;stroke-miterlimit:4;stroke-dasharray:none;stroke-dashoffset:0;stroke-opacity:1"
       id="path4144-0"
       sodipodi:type="arc"
       sodipodi:cx="632.15247"
       sodipodi:cy="499.86969"
       sodipodi:rx="12.433447"
       sodipodi:ry="12.433269"
       sodipodi:start="5.0908636"
       sodipodi:end="5.0889612"
       sodipodi:open="true"
       d="m 636.74667,488.31633 a 12.433447,12.433269 0 0 1 6.9615,16.142 12.433447,12.433269 0 0 1 -16.13891,6.96908 12.433447,12.433269 0 0 1 -6.97686,-16.13537 12.433447,12.433269 0 0 1 16.13228,-6.98443" />
    <path
       style="fill:#00ff00;fill-opacity:1;stroke:#00ff00;stroke-width:0.12693283;stroke-miterlimit:4;stroke-dasharray:none;stroke-dashoffset:0;stroke-opacity:1"
       id="path4144-0-0"
       sodipodi:type="arc"
       sodipodi:cx="167.56351"
       sodipodi:cy="546.25543"
       sodipodi:rx="12.433447"
       sodipodi:ry="12.433269"
       sodipodi:start="5.0908636"
       sodipodi:end="5.0889612"
       sodipodi:open="true"
       d="m 172.15771,534.70207 a 12.433447,12.433269 0 0 1 6.9615,16.142 12.433447,12.433269 0 0 1 -16.13891,6.96908 12.433447,12.433269 0 0 1 -6.97686,-16.13536 12.433447,12.433269 0 0 1 16.13228,-6.98443" />
    <path
       style="fill:#00ff00;fill-opacity:1;stroke:#00ff00;stroke-width:0.12693283;stroke-miterlimit:4;stroke-dasharray:none;stroke-dashoffset:0;stroke-opacity:1"
       id="path4144-0-0-2"
       sodipodi:type="arc"
       sodipodi:cx="283.85287"
       sodipodi:cy="811.9256"
       sodipodi:rx="12.433447"
       sodipodi:ry="12.433269"
       sodipodi:start="5.0908636"
       sodipodi:end="5.0889612"
       sodipodi:open="true"
       d="m 288.44708,800.37224 a 12.433447,12.433269 0 0 1 6.9615,16.142 12.433447,12.433269 0 0 1 -16.13892,6.96908 12.433447,12.433269 0 0 1 -6.97685,-16.13537 12.433447,12.433269 0 0 1 16.13228,-6.98443" />
    <path
       style="fill:#00ff00;fill-opacity:1;stroke:#00ff00;stroke-width:0.12693283;stroke-miterlimit:4;stroke-dasharray:none;stroke-dashoffset:0;stroke-opacity:1"
       id="path4144-0-0-2-9"
       sodipodi:type="arc"
       sodipodi:cx="571.64478"
       sodipodi:cy="782.67169"
       sodipodi:rx="12.433447"
       sodipodi:ry="12.433269"
       sodipodi:start="5.0908636"
       sodipodi:end="5.0889612"
       sodipodi:open="true"
       d="m 576.23898,771.11833 a 12.433447,12.433269 0 0 1 6.9615,16.142 12.433447,12.433269 0 0 1 -16.13891,6.96908 12.433447,12.433269 0 0 1 -6.97686,-16.13536 12.433447,12.433269 0 0 1 16.13228,-6.98444" />
    <path
       sodipodi:type="spiral"
       style="fill:none;fill-rule:evenodd;stroke:#000000;stroke-width:3.49118376;stroke-linecap:butt;stroke-linejoin:miter;stroke-miterlimit:4;stroke-dasharray:none;stroke-opacity:1"
       id="path4221"
       sodipodi:cx="404.15451"
       sodipodi:cy="600.27344"
       sodipodi:expansion="1"
       sodipodi:revolution="3"
       sodipodi:radius="40.806744"
       sodipodi:argument="-18.00301"
       sodipodi:t0="0.32741752"
       d="m 414.06567,609.2334 c -4.583,7.08133 -14.46921,8.11035 -21.15159,3.47376 -8.43696,-5.85401 -9.57716,-17.88303 -3.71585,-25.95461 7.11511,-9.7982 21.30118,-11.04903 30.75763,-3.95796 11.16286,8.37065 12.52407,24.72201 4.20005,35.56066 -9.62276,12.52976 -28.14462,14.0012 -40.36368,4.44215 -13.89818,-10.87262 -15.47978,-31.56848 -4.68424,-45.16671 12.12092,-15.26769 34.99325,-16.95944 49.96973,-4.92634 16.63802,13.36809 18.43989,38.4187 5.16843,54.77276 -0.9543,1.17596 -1.97459,2.29831 -3.05415,3.36043" />
    <path
       style="fill:#ff0000;fill-opacity:1;stroke:#ff0000;stroke-width:0.12693283;stroke-miterlimit:4;stroke-dasharray:none;stroke-dashoffset:0;stroke-opacity:1"
       id="path4144-0-0-2-9-2"
       sodipodi:type="arc"
       sodipodi:cx="407.54565"
       sodipodi:cy="597.49945"
       sodipodi:rx="12.433447"
       sodipodi:ry="12.433269"
       sodipodi:start="5.0908636"
       sodipodi:end="5.0889612"
       sodipodi:open="true"
       d="m 412.13986,585.94609 a 12.433447,12.433269 0 0 1 6.9615,16.142 12.433447,12.433269 0 0 1 -16.13892,6.96908 12.433447,12.433269 0 0 1 -6.97685,-16.13537 12.433447,12.433269 0 0 1 16.13228,-6.98443" />
  </g>
</svg>
